<svg version="1.0" xmlns="http://www.w3.org/2000/svg"
     width="894.000000pt" height="894.000000pt" viewBox="0 0 894.000000 894.000000">
  <g transform="translate(0.000000,894.000000) scale(0.100000,-0.100000)"
     fill="currentColor" stroke="none">
    <path d="M4175 8684 c-633 -52 -1273 -248 -1801 -549 -155 -89 -396 -253 -544 -371 -173 -138 -515 -480 -652 -651 -513 -646 -820 -1398 -912 -2240 -21 -191
-21 -607 0 -813 34 -337 90 -589 200 -910 228 -666 547 -1183 1024 -1661 683
-684 1545 -1096 2550 -1216 198 -23 634 -23 848 0 742 83 1422 334 2003 741
289 203 654 544 862 806 508 639 832 1413 917 2190 7 58 12 267 13 465 1 321
-1 377 -21 516 -96 685 -319 1280 -688 1834 -458 689 -1159 1256 -1934 1563
-354 141 -783 246 -1150 282 -117 12 -623 21 -715 14z m2451 -1446 c13 -13 19
-46 26 -136 5 -65 7 -1007 6 -2093 l-3 -1974 -23 -73 c-92 -297 -325 -520
-653 -626 -502 -161 -1032 48 -1162 459 -18 58 -22 92 -21 200 0 114 3 139 27
207 14 42 46 109 69 149 51 87 188 229 277 289 235 157 540 222 812 173 52
-10 114 -17 139 -18 37 0 46 4 57 25 10 20 12 210 10 928 l-2 904 -24 19 c-31
26 -133 25 -379 -1 -624 -67 -1245 -185 -1820 -345 -198 -55 -239 -71 -255
-99 -9 -16 -13 -342 -18 -1406 -6 -1518 -2 -1441 -64 -1593 -99 -243 -362
-448 -684 -535 -85 -22 -116 -25 -271 -26 -198 -1 -252 9 -434 83 -132 54
-178 82 -245 151 -119 122 -173 260 -174 445 0 74 5 131 17 175 26 97 97 236
161 313 109 131 303 259 486 321 160 54 375 70 534 40 148 -27 169 -28 185 -9
13 16 16 244 20 1721 l5 1704 25 24 c15 15 94 50 201 90 626 232 1389 396
2194 471 725 68 947 78 981 43z"/>
  </g>
</svg>
